G04 #@! TF.FileFunction,Legend,Top*
%FSLAX46Y46*%
G04 Gerber Fmt 4.6, Leading zero omitted, Abs format (unit mm)*
G04 Created by KiCad (PCBNEW (after 2015-mar-04 BZR unknown)-product) date 20.05.2015 17:30:12*
%MOMM*%
G01*
G04 APERTURE LIST*
%ADD10C,0.150000*%
%ADD11C,0.300000*%
%ADD12C,0.200000*%
G04 APERTURE END LIST*
D10*
D11*
X154178571Y-174464284D02*
X152678571Y-174464284D01*
X153392857Y-174464284D02*
X153392857Y-173607141D01*
X154178571Y-173607141D02*
X152678571Y-173607141D01*
X152678571Y-173107141D02*
X152678571Y-172249998D01*
X154178571Y-172678569D02*
X152678571Y-172678569D01*
X154178571Y-170964284D02*
X154178571Y-171821427D01*
X154178571Y-171392855D02*
X152678571Y-171392855D01*
X152892857Y-171535712D01*
X153035714Y-171678570D01*
X153107143Y-171821427D01*
X152678571Y-169678570D02*
X152678571Y-169964284D01*
X152750000Y-170107141D01*
X152821429Y-170178570D01*
X153035714Y-170321427D01*
X153321429Y-170392856D01*
X153892857Y-170392856D01*
X154035714Y-170321427D01*
X154107143Y-170249999D01*
X154178571Y-170107141D01*
X154178571Y-169821427D01*
X154107143Y-169678570D01*
X154035714Y-169607141D01*
X153892857Y-169535713D01*
X153535714Y-169535713D01*
X153392857Y-169607141D01*
X153321429Y-169678570D01*
X153250000Y-169821427D01*
X153250000Y-170107141D01*
X153321429Y-170249999D01*
X153392857Y-170321427D01*
X153535714Y-170392856D01*
X154178571Y-168892856D02*
X152678571Y-168892856D01*
X154178571Y-168035713D02*
X153321429Y-168678570D01*
X152678571Y-168035713D02*
X153535714Y-168892856D01*
X152678571Y-167535713D02*
X152678571Y-166607142D01*
X153250000Y-167107142D01*
X153250000Y-166892856D01*
X153321429Y-166749999D01*
X153392857Y-166678570D01*
X153535714Y-166607142D01*
X153892857Y-166607142D01*
X154035714Y-166678570D01*
X154107143Y-166749999D01*
X154178571Y-166892856D01*
X154178571Y-167321428D01*
X154107143Y-167464285D01*
X154035714Y-167535713D01*
X152678571Y-166107142D02*
X152678571Y-165178571D01*
X153250000Y-165678571D01*
X153250000Y-165464285D01*
X153321429Y-165321428D01*
X153392857Y-165249999D01*
X153535714Y-165178571D01*
X153892857Y-165178571D01*
X154035714Y-165249999D01*
X154107143Y-165321428D01*
X154178571Y-165464285D01*
X154178571Y-165892857D01*
X154107143Y-166035714D01*
X154035714Y-166107142D01*
X153607143Y-164535714D02*
X153607143Y-163392857D01*
X152821429Y-162750000D02*
X152750000Y-162678571D01*
X152678571Y-162535714D01*
X152678571Y-162178571D01*
X152750000Y-162035714D01*
X152821429Y-161964285D01*
X152964286Y-161892857D01*
X153107143Y-161892857D01*
X153321429Y-161964285D01*
X154178571Y-162821428D01*
X154178571Y-161892857D01*
X153321429Y-161035714D02*
X153250000Y-161178572D01*
X153178571Y-161250000D01*
X153035714Y-161321429D01*
X152964286Y-161321429D01*
X152821429Y-161250000D01*
X152750000Y-161178572D01*
X152678571Y-161035714D01*
X152678571Y-160750000D01*
X152750000Y-160607143D01*
X152821429Y-160535714D01*
X152964286Y-160464286D01*
X153035714Y-160464286D01*
X153178571Y-160535714D01*
X153250000Y-160607143D01*
X153321429Y-160750000D01*
X153321429Y-161035714D01*
X153392857Y-161178572D01*
X153464286Y-161250000D01*
X153607143Y-161321429D01*
X153892857Y-161321429D01*
X154035714Y-161250000D01*
X154107143Y-161178572D01*
X154178571Y-161035714D01*
X154178571Y-160750000D01*
X154107143Y-160607143D01*
X154035714Y-160535714D01*
X153892857Y-160464286D01*
X153607143Y-160464286D01*
X153464286Y-160535714D01*
X153392857Y-160607143D01*
X153321429Y-160750000D01*
D12*
X106426000Y-181864000D02*
X106426000Y-183388000D01*
X123083000Y-157628000D02*
X123083000Y-175662000D01*
X123083000Y-175662000D02*
X130576000Y-175662000D01*
X130576000Y-157628000D02*
X123083000Y-157628000D01*
X130576000Y-175662000D02*
X130576000Y-157628000D01*
X129941000Y-175662000D02*
X129941000Y-176297000D01*
X129941000Y-176297000D02*
X130576000Y-176297000D01*
X130576000Y-176297000D02*
X130576000Y-175662000D01*
X125250000Y-177300000D02*
X125250000Y-180300000D01*
X120306143Y-177378666D02*
X120353762Y-177426285D01*
X120401381Y-177569142D01*
X120401381Y-177664380D01*
X120353762Y-177807238D01*
X120258524Y-177902476D01*
X120163286Y-177950095D01*
X119972810Y-177997714D01*
X119829952Y-177997714D01*
X119639476Y-177950095D01*
X119544238Y-177902476D01*
X119449000Y-177807238D01*
X119401381Y-177664380D01*
X119401381Y-177569142D01*
X119449000Y-177426285D01*
X119496619Y-177378666D01*
X120401381Y-176426285D02*
X120401381Y-176997714D01*
X120401381Y-176712000D02*
X119401381Y-176712000D01*
X119544238Y-176807238D01*
X119639476Y-176902476D01*
X119687095Y-176997714D01*
X100861905Y-182951381D02*
X100861905Y-181951381D01*
X101100000Y-181951381D01*
X101242858Y-181999000D01*
X101338096Y-182094238D01*
X101385715Y-182189476D01*
X101433334Y-182379952D01*
X101433334Y-182522810D01*
X101385715Y-182713286D01*
X101338096Y-182808524D01*
X101242858Y-182903762D01*
X101100000Y-182951381D01*
X100861905Y-182951381D01*
X102385715Y-182951381D02*
X101814286Y-182951381D01*
X102100000Y-182951381D02*
X102100000Y-181951381D01*
X102004762Y-182094238D01*
X101909524Y-182189476D01*
X101814286Y-182237095D01*
X121991381Y-182284666D02*
X121515190Y-182618000D01*
X121991381Y-182856095D02*
X120991381Y-182856095D01*
X120991381Y-182475142D01*
X121039000Y-182379904D01*
X121086619Y-182332285D01*
X121181857Y-182284666D01*
X121324714Y-182284666D01*
X121419952Y-182332285D01*
X121467571Y-182379904D01*
X121515190Y-182475142D01*
X121515190Y-182856095D01*
X121991381Y-181332285D02*
X121991381Y-181903714D01*
X121991381Y-181618000D02*
X120991381Y-181618000D01*
X121134238Y-181713238D01*
X121229476Y-181808476D01*
X121277095Y-181903714D01*
X116530381Y-182284666D02*
X116054190Y-182618000D01*
X116530381Y-182856095D02*
X115530381Y-182856095D01*
X115530381Y-182475142D01*
X115578000Y-182379904D01*
X115625619Y-182332285D01*
X115720857Y-182284666D01*
X115863714Y-182284666D01*
X115958952Y-182332285D01*
X116006571Y-182379904D01*
X116054190Y-182475142D01*
X116054190Y-182856095D01*
X115625619Y-181903714D02*
X115578000Y-181856095D01*
X115530381Y-181760857D01*
X115530381Y-181522761D01*
X115578000Y-181427523D01*
X115625619Y-181379904D01*
X115720857Y-181332285D01*
X115816095Y-181332285D01*
X115958952Y-181379904D01*
X116530381Y-181951333D01*
X116530381Y-181332285D01*
X111831381Y-182411666D02*
X111355190Y-182745000D01*
X111831381Y-182983095D02*
X110831381Y-182983095D01*
X110831381Y-182602142D01*
X110879000Y-182506904D01*
X110926619Y-182459285D01*
X111021857Y-182411666D01*
X111164714Y-182411666D01*
X111259952Y-182459285D01*
X111307571Y-182506904D01*
X111355190Y-182602142D01*
X111355190Y-182983095D01*
X110831381Y-182078333D02*
X110831381Y-181459285D01*
X111212333Y-181792619D01*
X111212333Y-181649761D01*
X111259952Y-181554523D01*
X111307571Y-181506904D01*
X111402810Y-181459285D01*
X111640905Y-181459285D01*
X111736143Y-181506904D01*
X111783762Y-181554523D01*
X111831381Y-181649761D01*
X111831381Y-181935476D01*
X111783762Y-182030714D01*
X111736143Y-182078333D01*
X126893095Y-176003381D02*
X126893095Y-176812905D01*
X126940714Y-176908143D01*
X126988333Y-176955762D01*
X127083571Y-177003381D01*
X127274048Y-177003381D01*
X127369286Y-176955762D01*
X127416905Y-176908143D01*
X127464524Y-176812905D01*
X127464524Y-176003381D01*
X128464524Y-177003381D02*
X127893095Y-177003381D01*
X128178809Y-177003381D02*
X128178809Y-176003381D01*
X128083571Y-176146238D01*
X127988333Y-176241476D01*
X127893095Y-176289095D01*
X125483334Y-181951143D02*
X125435715Y-181998762D01*
X125292858Y-182046381D01*
X125197620Y-182046381D01*
X125054762Y-181998762D01*
X124959524Y-181903524D01*
X124911905Y-181808286D01*
X124864286Y-181617810D01*
X124864286Y-181474952D01*
X124911905Y-181284476D01*
X124959524Y-181189238D01*
X125054762Y-181094000D01*
X125197620Y-181046381D01*
X125292858Y-181046381D01*
X125435715Y-181094000D01*
X125483334Y-181141619D01*
X125864286Y-181141619D02*
X125911905Y-181094000D01*
X126007143Y-181046381D01*
X126245239Y-181046381D01*
X126340477Y-181094000D01*
X126388096Y-181141619D01*
X126435715Y-181236857D01*
X126435715Y-181332095D01*
X126388096Y-181474952D01*
X125816667Y-182046381D01*
X126435715Y-182046381D01*
X102416667Y-163702381D02*
X102750000Y-164702381D01*
X103083334Y-163702381D01*
X103988096Y-164607143D02*
X103940477Y-164654762D01*
X103797620Y-164702381D01*
X103702382Y-164702381D01*
X103559524Y-164654762D01*
X103464286Y-164559524D01*
X103416667Y-164464286D01*
X103369048Y-164273810D01*
X103369048Y-164130952D01*
X103416667Y-163940476D01*
X103464286Y-163845238D01*
X103559524Y-163750000D01*
X103702382Y-163702381D01*
X103797620Y-163702381D01*
X103940477Y-163750000D01*
X103988096Y-163797619D01*
X104988096Y-164607143D02*
X104940477Y-164654762D01*
X104797620Y-164702381D01*
X104702382Y-164702381D01*
X104559524Y-164654762D01*
X104464286Y-164559524D01*
X104416667Y-164464286D01*
X104369048Y-164273810D01*
X104369048Y-164130952D01*
X104416667Y-163940476D01*
X104464286Y-163845238D01*
X104559524Y-163750000D01*
X104702382Y-163702381D01*
X104797620Y-163702381D01*
X104940477Y-163750000D01*
X104988096Y-163797619D01*
D10*
X102988096Y-171750000D02*
X102892858Y-171702381D01*
X102750001Y-171702381D01*
X102607143Y-171750000D01*
X102511905Y-171845238D01*
X102464286Y-171940476D01*
X102416667Y-172130952D01*
X102416667Y-172273810D01*
X102464286Y-172464286D01*
X102511905Y-172559524D01*
X102607143Y-172654762D01*
X102750001Y-172702381D01*
X102845239Y-172702381D01*
X102988096Y-172654762D01*
X103035715Y-172607143D01*
X103035715Y-172273810D01*
X102845239Y-172273810D01*
X103464286Y-172702381D02*
X103464286Y-171702381D01*
X104035715Y-172702381D01*
X104035715Y-171702381D01*
X104511905Y-172702381D02*
X104511905Y-171702381D01*
X104750000Y-171702381D01*
X104892858Y-171750000D01*
X104988096Y-171845238D01*
X105035715Y-171940476D01*
X105083334Y-172130952D01*
X105083334Y-172273810D01*
X105035715Y-172464286D01*
X104988096Y-172559524D01*
X104892858Y-172654762D01*
X104750000Y-172702381D01*
X104511905Y-172702381D01*
X102559524Y-167654762D02*
X102702381Y-167702381D01*
X102940477Y-167702381D01*
X103035715Y-167654762D01*
X103083334Y-167607143D01*
X103130953Y-167511905D01*
X103130953Y-167416667D01*
X103083334Y-167321429D01*
X103035715Y-167273810D01*
X102940477Y-167226190D01*
X102750000Y-167178571D01*
X102654762Y-167130952D01*
X102607143Y-167083333D01*
X102559524Y-166988095D01*
X102559524Y-166892857D01*
X102607143Y-166797619D01*
X102654762Y-166750000D01*
X102750000Y-166702381D01*
X102988096Y-166702381D01*
X103130953Y-166750000D01*
X104130953Y-167607143D02*
X104083334Y-167654762D01*
X103940477Y-167702381D01*
X103845239Y-167702381D01*
X103702381Y-167654762D01*
X103607143Y-167559524D01*
X103559524Y-167464286D01*
X103511905Y-167273810D01*
X103511905Y-167130952D01*
X103559524Y-166940476D01*
X103607143Y-166845238D01*
X103702381Y-166750000D01*
X103845239Y-166702381D01*
X103940477Y-166702381D01*
X104083334Y-166750000D01*
X104130953Y-166797619D01*
X105035715Y-167702381D02*
X104559524Y-167702381D01*
X104559524Y-166702381D01*
X102535714Y-170154762D02*
X102678571Y-170202381D01*
X102916667Y-170202381D01*
X103011905Y-170154762D01*
X103059524Y-170107143D01*
X103107143Y-170011905D01*
X103107143Y-169916667D01*
X103059524Y-169821429D01*
X103011905Y-169773810D01*
X102916667Y-169726190D01*
X102726190Y-169678571D01*
X102630952Y-169630952D01*
X102583333Y-169583333D01*
X102535714Y-169488095D01*
X102535714Y-169392857D01*
X102583333Y-169297619D01*
X102630952Y-169250000D01*
X102726190Y-169202381D01*
X102964286Y-169202381D01*
X103107143Y-169250000D01*
X103535714Y-170202381D02*
X103535714Y-169202381D01*
X103773809Y-169202381D01*
X103916667Y-169250000D01*
X104011905Y-169345238D01*
X104059524Y-169440476D01*
X104107143Y-169630952D01*
X104107143Y-169773810D01*
X104059524Y-169964286D01*
X104011905Y-170059524D01*
X103916667Y-170154762D01*
X103773809Y-170202381D01*
X103535714Y-170202381D01*
X104488095Y-169916667D02*
X104964286Y-169916667D01*
X104392857Y-170202381D02*
X104726190Y-169202381D01*
X105059524Y-170202381D01*
M02*
