M48
;DRILL file {kicad (after 2015-mar-04 BZR unknown)-product} date 20.05.2015 17:29:48
;FORMAT={-:-/ absolute / metric / decimal}
FMAT,2
METRIC,TZ
T1C0.500
T2C0.600
%
G90
G05
M71
T1
X99.75Y-174.5
X103.Y-165.75
X104.648Y-158.496
X105.9Y-168.5
X107.188Y-160.147
X107.188Y-175.006
X108.Y-166.25
X112.268Y-172.339
X113.538Y-161.798
X114.808Y-171.069
X122.3Y-180.
X123.444Y-168.529
X124.2Y-176.5
X124.968Y-169.799
X127.381Y-165.989
X127.381Y-168.529
X127.381Y-171.069
X127.381Y-173.609
X128.75Y-178.75
X128.905Y-164.719
X128.905Y-167.259
X128.905Y-169.799
X128.905Y-172.339
X130.5Y-177.5
T2
X102.08Y-156.
X102.08Y-180.
X104.62Y-156.
X104.62Y-180.
X107.16Y-156.
X107.16Y-180.
X109.7Y-156.
X109.7Y-180.
X112.24Y-156.
X112.24Y-180.
X114.78Y-156.
X114.78Y-180.
X117.32Y-156.
X117.32Y-180.
X119.86Y-156.
X119.86Y-180.
X134.08Y-156.
X134.08Y-180.
X136.62Y-156.
X136.62Y-180.
X139.16Y-156.
X139.16Y-180.
X141.7Y-156.
X141.7Y-180.
X144.24Y-156.
X144.24Y-180.
X146.78Y-156.
X146.78Y-180.
X149.32Y-156.
X149.32Y-180.
X151.86Y-156.
X151.86Y-180.
T0
M30
