G04 #@! TF.FileFunction,Copper,L1,Top,Signal*
%FSLAX46Y46*%
G04 Gerber Fmt 4.6, Leading zero omitted, Abs format (unit mm)*
G04 Created by KiCad (PCBNEW (after 2015-mar-04 BZR unknown)-product) date 20.05.2015 17:30:12*
%MOMM*%
G01*
G04 APERTURE LIST*
%ADD10C,0.150000*%
%ADD11R,0.800000X0.900000*%
%ADD12R,1.600000X1.800000*%
%ADD13R,0.500000X0.500000*%
%ADD14R,1.270000X0.700000*%
%ADD15R,1.400000X2.800000*%
%ADD16R,4.000000X2.000000*%
%ADD17C,1.500000*%
%ADD18C,1.300000*%
%ADD19C,0.500000*%
G04 APERTURE END LIST*
D10*
D11*
X121600000Y-176300000D03*
X121600000Y-178100000D03*
D12*
X103850000Y-182600000D03*
X107950000Y-182600000D03*
D13*
X120015000Y-181345000D03*
X120015000Y-182245000D03*
X117475000Y-181345000D03*
X117475000Y-182245000D03*
X109855000Y-181345000D03*
X109855000Y-182245000D03*
D14*
X121559000Y-158390000D03*
X121559000Y-159660000D03*
X121559000Y-160930000D03*
X121559000Y-162200000D03*
X121559000Y-163470000D03*
X121559000Y-164740000D03*
X132100000Y-158390000D03*
X132100000Y-159660000D03*
X132100000Y-160930000D03*
X132100000Y-162200000D03*
X132100000Y-163470000D03*
X132100000Y-164740000D03*
X121559000Y-169820000D03*
X121559000Y-168550000D03*
X121559000Y-167280000D03*
X121559000Y-166010000D03*
X132100000Y-166010000D03*
X132100000Y-167280000D03*
X132100000Y-168550000D03*
X132100000Y-169820000D03*
X132100000Y-174900000D03*
X132100000Y-173630000D03*
X132100000Y-172360000D03*
X132100000Y-171090000D03*
X121559000Y-171090000D03*
X121559000Y-172360000D03*
X121559000Y-173630000D03*
X121559000Y-174900000D03*
D15*
X124200000Y-178800000D03*
X127000000Y-178800000D03*
D16*
X99748000Y-164592000D03*
X99748000Y-172212000D03*
X99748000Y-167132000D03*
X99748000Y-169672000D03*
D17*
X104620000Y-156000000D03*
X102080000Y-156000000D03*
X107160000Y-156000000D03*
X109700000Y-156000000D03*
X114780000Y-156000000D03*
X117320000Y-156000000D03*
X112240000Y-156000000D03*
X119860000Y-156000000D03*
X112240000Y-180000000D03*
X119860000Y-180000000D03*
X117320000Y-180000000D03*
X114780000Y-180000000D03*
X109700000Y-180000000D03*
X107160000Y-180000000D03*
X102080000Y-180000000D03*
X104620000Y-180000000D03*
X136620000Y-156000000D03*
X134080000Y-156000000D03*
X139160000Y-156000000D03*
X141700000Y-156000000D03*
X146780000Y-156000000D03*
X149320000Y-156000000D03*
X144240000Y-156000000D03*
X151860000Y-156000000D03*
X144240000Y-180000000D03*
X151860000Y-180000000D03*
X149320000Y-180000000D03*
X146780000Y-180000000D03*
X141700000Y-180000000D03*
X139160000Y-180000000D03*
X134080000Y-180000000D03*
X136620000Y-180000000D03*
D18*
X127381000Y-173609000D03*
X107188000Y-175006000D03*
X124200000Y-176500000D03*
X103000000Y-165750000D03*
X122300000Y-180000000D03*
X128750000Y-178750000D03*
X130500000Y-177500000D03*
X99750000Y-174500000D03*
X127381000Y-168529000D03*
X114808000Y-171069000D03*
X127381000Y-171069000D03*
X112268000Y-172339000D03*
X128905000Y-172339000D03*
X104648000Y-158496000D03*
X128905000Y-164719000D03*
X113538000Y-161798000D03*
X128905000Y-167259000D03*
X107188000Y-160147000D03*
X127381000Y-165989000D03*
X128905000Y-169799000D03*
X108000000Y-166250000D03*
X123444000Y-168529000D03*
X105900000Y-168500000D03*
X124968000Y-169799000D03*
D19*
X103850000Y-182600000D02*
X104560000Y-182600000D01*
X104560000Y-182600000D02*
X107160000Y-180000000D01*
X132100000Y-173630000D02*
X127402000Y-173630000D01*
X127402000Y-173630000D02*
X127381000Y-173609000D01*
X107188000Y-179972000D02*
X107160000Y-180000000D01*
X107188000Y-175006000D02*
X107188000Y-179972000D01*
X117475000Y-182245000D02*
X120015000Y-182245000D01*
X109855000Y-182245000D02*
X117475000Y-182245000D01*
X109855000Y-182245000D02*
X108305000Y-182245000D01*
X108305000Y-182245000D02*
X107950000Y-182600000D01*
X107976000Y-182626000D02*
X107950000Y-182600000D01*
X124200000Y-178800000D02*
X124200000Y-176500000D01*
X123600000Y-176300000D02*
X124000000Y-176300000D01*
X124000000Y-176300000D02*
X124200000Y-176500000D01*
X121600000Y-176300000D02*
X123600000Y-176300000D01*
X121559000Y-174900000D02*
X121559000Y-176259000D01*
X121559000Y-176259000D02*
X121600000Y-176300000D01*
X99748000Y-164592000D02*
X102248000Y-164592000D01*
X102248000Y-164592000D02*
X103000000Y-165344000D01*
X103000000Y-165344000D02*
X103000000Y-165750000D01*
X122300000Y-178850000D02*
X122300000Y-180000000D01*
X121600000Y-178100000D02*
X121600000Y-178150000D01*
X121600000Y-178150000D02*
X122300000Y-178850000D01*
X128700000Y-178800000D02*
X128750000Y-178750000D01*
X127000000Y-178800000D02*
X128700000Y-178800000D01*
X132100000Y-175900000D02*
X130500000Y-177500000D01*
X132100000Y-174900000D02*
X132100000Y-175900000D01*
X99748000Y-174498000D02*
X99750000Y-174500000D01*
X99748000Y-172212000D02*
X99748000Y-174498000D01*
X149320000Y-156000000D02*
X146482000Y-153162000D01*
X146482000Y-153162000D02*
X120158000Y-153162000D01*
X118069999Y-155250001D02*
X117320000Y-156000000D01*
X120158000Y-153162000D02*
X118069999Y-155250001D01*
X132100000Y-168550000D02*
X127402000Y-168550000D01*
X127402000Y-168550000D02*
X127381000Y-168529000D01*
X120015000Y-181345000D02*
X120015000Y-180155000D01*
X120015000Y-180155000D02*
X119860000Y-180000000D01*
X121559000Y-171090000D02*
X120424000Y-171090000D01*
X119860000Y-178939340D02*
X119860000Y-180000000D01*
X120424000Y-171090000D02*
X119860000Y-171654000D01*
X119860000Y-171654000D02*
X119860000Y-178939340D01*
X114808000Y-171069000D02*
X114808000Y-179972000D01*
X114808000Y-179972000D02*
X114780000Y-180000000D01*
X132100000Y-171090000D02*
X127402000Y-171090000D01*
X127402000Y-171090000D02*
X127381000Y-171069000D01*
X121559000Y-167280000D02*
X112374000Y-167280000D01*
X112374000Y-167280000D02*
X104620000Y-175034000D01*
X104620000Y-175034000D02*
X104620000Y-180000000D01*
X117475000Y-181345000D02*
X117475000Y-180155000D01*
X117475000Y-180155000D02*
X117320000Y-180000000D01*
X121559000Y-169820000D02*
X120424000Y-169820000D01*
X117320000Y-172924000D02*
X117320000Y-178939340D01*
X120424000Y-169820000D02*
X117320000Y-172924000D01*
X117320000Y-178939340D02*
X117320000Y-180000000D01*
X112268000Y-172339000D02*
X112268000Y-179972000D01*
X112268000Y-179972000D02*
X112240000Y-180000000D01*
X132100000Y-172360000D02*
X128926000Y-172360000D01*
X128926000Y-172360000D02*
X128905000Y-172339000D01*
X104648000Y-158496000D02*
X104648000Y-156028000D01*
X104648000Y-156028000D02*
X104620000Y-156000000D01*
X132100000Y-164740000D02*
X128926000Y-164740000D01*
X128926000Y-164740000D02*
X128905000Y-164719000D01*
X112240000Y-156000000D02*
X112240000Y-160500000D01*
X112240000Y-160500000D02*
X113538000Y-161798000D01*
X132100000Y-167280000D02*
X128926000Y-167280000D01*
X128926000Y-167280000D02*
X128905000Y-167259000D01*
X121559000Y-166010000D02*
X110850000Y-166010000D01*
X110850000Y-166010000D02*
X102080000Y-174780000D01*
X102080000Y-174780000D02*
X102080000Y-180000000D01*
X121559000Y-163470000D02*
X112289000Y-163470000D01*
X112289000Y-163470000D02*
X109700000Y-160881000D01*
X109700000Y-160881000D02*
X109700000Y-156000000D01*
X107188000Y-160147000D02*
X107188000Y-156028000D01*
X107188000Y-156028000D02*
X107160000Y-156000000D01*
X127402000Y-166010000D02*
X127381000Y-165989000D01*
X132100000Y-166010000D02*
X127402000Y-166010000D01*
X121559000Y-162200000D02*
X116480000Y-162200000D01*
X116480000Y-162200000D02*
X114780000Y-160500000D01*
X114780000Y-160500000D02*
X114780000Y-156000000D01*
X132100000Y-169820000D02*
X128926000Y-169820000D01*
X128926000Y-169820000D02*
X128905000Y-169799000D01*
X109855000Y-181345000D02*
X109855000Y-180155000D01*
X109855000Y-180155000D02*
X109700000Y-180000000D01*
X121559000Y-168550000D02*
X113517000Y-168550000D01*
X109700000Y-172367000D02*
X109700000Y-180000000D01*
X113517000Y-168550000D02*
X109700000Y-172367000D01*
X121559000Y-164740000D02*
X104542000Y-164740000D01*
X104542000Y-164740000D02*
X102080000Y-162278000D01*
X102080000Y-162278000D02*
X102080000Y-156000000D01*
X107350001Y-166899999D02*
X108000000Y-166250000D01*
X99748000Y-167132000D02*
X107118000Y-167132000D01*
X107118000Y-167132000D02*
X107350001Y-166899999D01*
X121559000Y-172360000D02*
X122694000Y-172360000D01*
X122694000Y-172360000D02*
X123444000Y-171610000D01*
X123444000Y-171610000D02*
X123444000Y-168529000D01*
X105250001Y-169149999D02*
X105900000Y-168500000D01*
X104728000Y-169672000D02*
X105250001Y-169149999D01*
X99748000Y-169672000D02*
X104728000Y-169672000D01*
X121559000Y-173630000D02*
X123169000Y-173630000D01*
X124968000Y-171831000D02*
X124968000Y-169799000D01*
X123169000Y-173630000D02*
X124968000Y-171831000D01*
X100002000Y-169418000D02*
X99748000Y-169672000D01*
X123473998Y-154500000D02*
X145280000Y-154500000D01*
X145280000Y-154500000D02*
X146780000Y-156000000D01*
X120100000Y-160200000D02*
X120100000Y-157873998D01*
X120100000Y-157873998D02*
X123473998Y-154500000D01*
X120830000Y-160930000D02*
X120100000Y-160200000D01*
X121559000Y-160930000D02*
X120830000Y-160930000D01*
X140290000Y-158390000D02*
X151860000Y-169960000D01*
X151860000Y-169960000D02*
X151860000Y-180000000D01*
X132100000Y-158390000D02*
X140290000Y-158390000D01*
X121559000Y-159660000D02*
X122694000Y-159660000D01*
X122694000Y-159660000D02*
X124954000Y-157400000D01*
X124954000Y-157400000D02*
X140300000Y-157400000D01*
X140300000Y-157400000D02*
X140950001Y-156749999D01*
X140950001Y-156749999D02*
X141700000Y-156000000D01*
X132100000Y-159660000D02*
X139060000Y-159660000D01*
X139060000Y-159660000D02*
X149320000Y-169920000D01*
X149320000Y-169920000D02*
X149320000Y-180000000D01*
X132100000Y-162200000D02*
X134700000Y-162200000D01*
X134700000Y-162200000D02*
X136620000Y-164120000D01*
X136620000Y-164120000D02*
X136620000Y-180000000D01*
X132100000Y-163470000D02*
X133235000Y-163470000D01*
X133235000Y-163470000D02*
X134080000Y-164315000D01*
X134080000Y-164315000D02*
X134080000Y-178939340D01*
X134080000Y-178939340D02*
X134080000Y-180000000D01*
X122490000Y-158390000D02*
X124880000Y-156000000D01*
X124880000Y-156000000D02*
X134080000Y-156000000D01*
X121559000Y-158390000D02*
X122490000Y-158390000D01*
X137730000Y-160930000D02*
X141700000Y-164900000D01*
X141700000Y-164900000D02*
X141700000Y-180000000D01*
X132100000Y-160930000D02*
X137730000Y-160930000D01*
M02*
