G04 #@! TF.FileFunction,Soldermask,Top*
%FSLAX46Y46*%
G04 Gerber Fmt 4.6, Leading zero omitted, Abs format (unit mm)*
G04 Created by KiCad (PCBNEW (after 2015-mar-04 BZR unknown)-product) date 20.05.2015 17:30:12*
%MOMM*%
G01*
G04 APERTURE LIST*
%ADD10C,0.150000*%
%ADD11R,0.800000X0.900000*%
%ADD12R,1.600000X1.800000*%
%ADD13R,0.500000X0.500000*%
%ADD14R,1.270000X0.700000*%
%ADD15R,1.400000X2.800000*%
%ADD16R,4.000000X2.000000*%
%ADD17C,1.500000*%
G04 APERTURE END LIST*
D10*
D11*
X121600000Y-176300000D03*
X121600000Y-178100000D03*
D12*
X103850000Y-182600000D03*
X107950000Y-182600000D03*
D13*
X120015000Y-181345000D03*
X120015000Y-182245000D03*
X117475000Y-181345000D03*
X117475000Y-182245000D03*
X109855000Y-181345000D03*
X109855000Y-182245000D03*
D14*
X121559000Y-158390000D03*
X121559000Y-159660000D03*
X121559000Y-160930000D03*
X121559000Y-162200000D03*
X121559000Y-163470000D03*
X121559000Y-164740000D03*
X132100000Y-158390000D03*
X132100000Y-159660000D03*
X132100000Y-160930000D03*
X132100000Y-162200000D03*
X132100000Y-163470000D03*
X132100000Y-164740000D03*
X121559000Y-169820000D03*
X121559000Y-168550000D03*
X121559000Y-167280000D03*
X121559000Y-166010000D03*
X132100000Y-166010000D03*
X132100000Y-167280000D03*
X132100000Y-168550000D03*
X132100000Y-169820000D03*
X132100000Y-174900000D03*
X132100000Y-173630000D03*
X132100000Y-172360000D03*
X132100000Y-171090000D03*
X121559000Y-171090000D03*
X121559000Y-172360000D03*
X121559000Y-173630000D03*
X121559000Y-174900000D03*
D15*
X124200000Y-178800000D03*
X127000000Y-178800000D03*
D16*
X99748000Y-164592000D03*
X99748000Y-172212000D03*
X99748000Y-167132000D03*
X99748000Y-169672000D03*
D17*
X104620000Y-156000000D03*
X102080000Y-156000000D03*
X107160000Y-156000000D03*
X109700000Y-156000000D03*
X114780000Y-156000000D03*
X117320000Y-156000000D03*
X112240000Y-156000000D03*
X119860000Y-156000000D03*
X112240000Y-180000000D03*
X119860000Y-180000000D03*
X117320000Y-180000000D03*
X114780000Y-180000000D03*
X109700000Y-180000000D03*
X107160000Y-180000000D03*
X102080000Y-180000000D03*
X104620000Y-180000000D03*
X136620000Y-156000000D03*
X134080000Y-156000000D03*
X139160000Y-156000000D03*
X141700000Y-156000000D03*
X146780000Y-156000000D03*
X149320000Y-156000000D03*
X144240000Y-156000000D03*
X151860000Y-156000000D03*
X144240000Y-180000000D03*
X151860000Y-180000000D03*
X149320000Y-180000000D03*
X146780000Y-180000000D03*
X141700000Y-180000000D03*
X139160000Y-180000000D03*
X134080000Y-180000000D03*
X136620000Y-180000000D03*
M02*
