G04 #@! TF.FileFunction,Copper,L2,Bot,Signal*
%FSLAX46Y46*%
G04 Gerber Fmt 4.6, Leading zero omitted, Abs format (unit mm)*
G04 Created by KiCad (PCBNEW (after 2015-mar-04 BZR unknown)-product) date 20.05.2015 17:30:12*
%MOMM*%
G01*
G04 APERTURE LIST*
%ADD10C,0.150000*%
%ADD11C,1.500000*%
%ADD12C,1.300000*%
%ADD13C,0.500000*%
%ADD14C,0.254000*%
G04 APERTURE END LIST*
D10*
D11*
X104620000Y-156000000D03*
X102080000Y-156000000D03*
X107160000Y-156000000D03*
X109700000Y-156000000D03*
X114780000Y-156000000D03*
X117320000Y-156000000D03*
X112240000Y-156000000D03*
X119860000Y-156000000D03*
X112240000Y-180000000D03*
X119860000Y-180000000D03*
X117320000Y-180000000D03*
X114780000Y-180000000D03*
X109700000Y-180000000D03*
X107160000Y-180000000D03*
X102080000Y-180000000D03*
X104620000Y-180000000D03*
X136620000Y-156000000D03*
X134080000Y-156000000D03*
X139160000Y-156000000D03*
X141700000Y-156000000D03*
X146780000Y-156000000D03*
X149320000Y-156000000D03*
X144240000Y-156000000D03*
X151860000Y-156000000D03*
X144240000Y-180000000D03*
X151860000Y-180000000D03*
X149320000Y-180000000D03*
X146780000Y-180000000D03*
X141700000Y-180000000D03*
X139160000Y-180000000D03*
X134080000Y-180000000D03*
X136620000Y-180000000D03*
D12*
X127381000Y-173609000D03*
X107188000Y-175006000D03*
X124200000Y-176500000D03*
X103000000Y-165750000D03*
X122300000Y-180000000D03*
X128750000Y-178750000D03*
X130500000Y-177500000D03*
X99750000Y-174500000D03*
X127381000Y-168529000D03*
X114808000Y-171069000D03*
X127381000Y-171069000D03*
X112268000Y-172339000D03*
X128905000Y-172339000D03*
X104648000Y-158496000D03*
X128905000Y-164719000D03*
X113538000Y-161798000D03*
X128905000Y-167259000D03*
X107188000Y-160147000D03*
X127381000Y-165989000D03*
X128905000Y-169799000D03*
X108000000Y-166250000D03*
X123444000Y-168529000D03*
X105900000Y-168500000D03*
X124968000Y-169799000D03*
D13*
X127381000Y-173609000D02*
X132769000Y-173609000D01*
X132769000Y-173609000D02*
X139160000Y-180000000D01*
X127381000Y-173609000D02*
X108839000Y-173609000D01*
X108585000Y-173609000D02*
X107188000Y-175006000D01*
X108839000Y-173609000D02*
X108585000Y-173609000D01*
X127381000Y-168529000D02*
X136791000Y-168529000D01*
X136791000Y-168529000D02*
X149320000Y-156000000D01*
X127381000Y-171069000D02*
X114808000Y-171069000D01*
X127381000Y-171069000D02*
X137849000Y-171069000D01*
X146030001Y-179250001D02*
X146780000Y-180000000D01*
X137849000Y-171069000D02*
X146030001Y-179250001D01*
X128905000Y-172339000D02*
X112268000Y-172339000D01*
X128905000Y-172339000D02*
X136579000Y-172339000D01*
X136579000Y-172339000D02*
X144240000Y-180000000D01*
X121539000Y-164719000D02*
X115316000Y-158496000D01*
X115316000Y-158496000D02*
X104648000Y-158496000D01*
X128905000Y-164719000D02*
X121539000Y-164719000D01*
X128905000Y-164719000D02*
X136620000Y-157004000D01*
X136620000Y-157004000D02*
X136620000Y-156000000D01*
X113538000Y-161798000D02*
X118999000Y-167259000D01*
X118999000Y-167259000D02*
X128905000Y-167259000D01*
X128905000Y-167259000D02*
X132981000Y-167259000D01*
X132981000Y-167259000D02*
X144240000Y-156000000D01*
X120269000Y-165989000D02*
X114427000Y-160147000D01*
X114427000Y-160147000D02*
X107188000Y-160147000D01*
X127381000Y-165989000D02*
X120269000Y-165989000D01*
X127381000Y-165989000D02*
X130231660Y-165989000D01*
X139160000Y-157060660D02*
X139160000Y-156000000D01*
X130231660Y-165989000D02*
X139160000Y-157060660D01*
X119860000Y-156000000D02*
X121428000Y-154432000D01*
X121428000Y-154432000D02*
X150292000Y-154432000D01*
X150292000Y-154432000D02*
X151110001Y-155250001D01*
X151110001Y-155250001D02*
X151860000Y-156000000D01*
X128905000Y-169799000D02*
X138061000Y-169799000D01*
X138061000Y-169799000D02*
X151860000Y-156000000D01*
X108649999Y-166899999D02*
X108000000Y-166250000D01*
X110279000Y-168529000D02*
X108649999Y-166899999D01*
X123444000Y-168529000D02*
X110279000Y-168529000D01*
X106549999Y-169149999D02*
X105900000Y-168500000D01*
X107199000Y-169799000D02*
X106549999Y-169149999D01*
X124968000Y-169799000D02*
X107199000Y-169799000D01*
D14*
G36*
X131623000Y-182197395D02*
X130505394Y-183315000D01*
X121245240Y-183315000D01*
X121245240Y-179725715D01*
X121034831Y-179216485D01*
X120645564Y-178826539D01*
X120136702Y-178615241D01*
X119585715Y-178614760D01*
X119076485Y-178825169D01*
X118686539Y-179214436D01*
X118590023Y-179446870D01*
X118494831Y-179216485D01*
X118105564Y-178826539D01*
X117596702Y-178615241D01*
X117045715Y-178614760D01*
X116536485Y-178825169D01*
X116146539Y-179214436D01*
X116050023Y-179446870D01*
X115954831Y-179216485D01*
X115565564Y-178826539D01*
X115056702Y-178615241D01*
X114505715Y-178614760D01*
X113996485Y-178825169D01*
X113606539Y-179214436D01*
X113510023Y-179446870D01*
X113414831Y-179216485D01*
X113025564Y-178826539D01*
X112516702Y-178615241D01*
X111965715Y-178614760D01*
X111456485Y-178825169D01*
X111066539Y-179214436D01*
X110970023Y-179446870D01*
X110874831Y-179216485D01*
X110485564Y-178826539D01*
X109976702Y-178615241D01*
X109425715Y-178614760D01*
X108916485Y-178825169D01*
X108526539Y-179214436D01*
X108430023Y-179446870D01*
X108334831Y-179216485D01*
X107945564Y-178826539D01*
X107436702Y-178615241D01*
X106885715Y-178614760D01*
X106376485Y-178825169D01*
X105986539Y-179214436D01*
X105890023Y-179446870D01*
X105794831Y-179216485D01*
X105405564Y-178826539D01*
X104896702Y-178615241D01*
X104345715Y-178614760D01*
X103836485Y-178825169D01*
X103446539Y-179214436D01*
X103350023Y-179446870D01*
X103254831Y-179216485D01*
X102865564Y-178826539D01*
X102356702Y-178615241D01*
X101805715Y-178614760D01*
X101296485Y-178825169D01*
X100906539Y-179214436D01*
X100695241Y-179723298D01*
X100694760Y-180274285D01*
X100905169Y-180783515D01*
X101294436Y-181173461D01*
X101803298Y-181384759D01*
X102354285Y-181385240D01*
X102863515Y-181174831D01*
X103253461Y-180785564D01*
X103349976Y-180553129D01*
X103445169Y-180783515D01*
X103834436Y-181173461D01*
X104343298Y-181384759D01*
X104894285Y-181385240D01*
X105403515Y-181174831D01*
X105793461Y-180785564D01*
X105889976Y-180553129D01*
X105985169Y-180783515D01*
X106374436Y-181173461D01*
X106883298Y-181384759D01*
X107434285Y-181385240D01*
X107943515Y-181174831D01*
X108333461Y-180785564D01*
X108429976Y-180553129D01*
X108525169Y-180783515D01*
X108914436Y-181173461D01*
X109423298Y-181384759D01*
X109974285Y-181385240D01*
X110483515Y-181174831D01*
X110873461Y-180785564D01*
X110969976Y-180553129D01*
X111065169Y-180783515D01*
X111454436Y-181173461D01*
X111963298Y-181384759D01*
X112514285Y-181385240D01*
X113023515Y-181174831D01*
X113413461Y-180785564D01*
X113509976Y-180553129D01*
X113605169Y-180783515D01*
X113994436Y-181173461D01*
X114503298Y-181384759D01*
X115054285Y-181385240D01*
X115563515Y-181174831D01*
X115953461Y-180785564D01*
X116049976Y-180553129D01*
X116145169Y-180783515D01*
X116534436Y-181173461D01*
X117043298Y-181384759D01*
X117594285Y-181385240D01*
X118103515Y-181174831D01*
X118493461Y-180785564D01*
X118589976Y-180553129D01*
X118685169Y-180783515D01*
X119074436Y-181173461D01*
X119583298Y-181384759D01*
X120134285Y-181385240D01*
X120643515Y-181174831D01*
X121033461Y-180785564D01*
X121244759Y-180276702D01*
X121245240Y-179725715D01*
X121245240Y-183315000D01*
X98994605Y-183315000D01*
X97877000Y-182197395D01*
X97877000Y-171377000D01*
X101623000Y-171377000D01*
X101623000Y-176500000D01*
X101623000Y-178127000D01*
X126802605Y-178127000D01*
X128552605Y-176377000D01*
X130447395Y-176377000D01*
X131623000Y-177552605D01*
X131623000Y-182197395D01*
X131623000Y-182197395D01*
G37*
X131623000Y-182197395D02*
X130505394Y-183315000D01*
X121245240Y-183315000D01*
X121245240Y-179725715D01*
X121034831Y-179216485D01*
X120645564Y-178826539D01*
X120136702Y-178615241D01*
X119585715Y-178614760D01*
X119076485Y-178825169D01*
X118686539Y-179214436D01*
X118590023Y-179446870D01*
X118494831Y-179216485D01*
X118105564Y-178826539D01*
X117596702Y-178615241D01*
X117045715Y-178614760D01*
X116536485Y-178825169D01*
X116146539Y-179214436D01*
X116050023Y-179446870D01*
X115954831Y-179216485D01*
X115565564Y-178826539D01*
X115056702Y-178615241D01*
X114505715Y-178614760D01*
X113996485Y-178825169D01*
X113606539Y-179214436D01*
X113510023Y-179446870D01*
X113414831Y-179216485D01*
X113025564Y-178826539D01*
X112516702Y-178615241D01*
X111965715Y-178614760D01*
X111456485Y-178825169D01*
X111066539Y-179214436D01*
X110970023Y-179446870D01*
X110874831Y-179216485D01*
X110485564Y-178826539D01*
X109976702Y-178615241D01*
X109425715Y-178614760D01*
X108916485Y-178825169D01*
X108526539Y-179214436D01*
X108430023Y-179446870D01*
X108334831Y-179216485D01*
X107945564Y-178826539D01*
X107436702Y-178615241D01*
X106885715Y-178614760D01*
X106376485Y-178825169D01*
X105986539Y-179214436D01*
X105890023Y-179446870D01*
X105794831Y-179216485D01*
X105405564Y-178826539D01*
X104896702Y-178615241D01*
X104345715Y-178614760D01*
X103836485Y-178825169D01*
X103446539Y-179214436D01*
X103350023Y-179446870D01*
X103254831Y-179216485D01*
X102865564Y-178826539D01*
X102356702Y-178615241D01*
X101805715Y-178614760D01*
X101296485Y-178825169D01*
X100906539Y-179214436D01*
X100695241Y-179723298D01*
X100694760Y-180274285D01*
X100905169Y-180783515D01*
X101294436Y-181173461D01*
X101803298Y-181384759D01*
X102354285Y-181385240D01*
X102863515Y-181174831D01*
X103253461Y-180785564D01*
X103349976Y-180553129D01*
X103445169Y-180783515D01*
X103834436Y-181173461D01*
X104343298Y-181384759D01*
X104894285Y-181385240D01*
X105403515Y-181174831D01*
X105793461Y-180785564D01*
X105889976Y-180553129D01*
X105985169Y-180783515D01*
X106374436Y-181173461D01*
X106883298Y-181384759D01*
X107434285Y-181385240D01*
X107943515Y-181174831D01*
X108333461Y-180785564D01*
X108429976Y-180553129D01*
X108525169Y-180783515D01*
X108914436Y-181173461D01*
X109423298Y-181384759D01*
X109974285Y-181385240D01*
X110483515Y-181174831D01*
X110873461Y-180785564D01*
X110969976Y-180553129D01*
X111065169Y-180783515D01*
X111454436Y-181173461D01*
X111963298Y-181384759D01*
X112514285Y-181385240D01*
X113023515Y-181174831D01*
X113413461Y-180785564D01*
X113509976Y-180553129D01*
X113605169Y-180783515D01*
X113994436Y-181173461D01*
X114503298Y-181384759D01*
X115054285Y-181385240D01*
X115563515Y-181174831D01*
X115953461Y-180785564D01*
X116049976Y-180553129D01*
X116145169Y-180783515D01*
X116534436Y-181173461D01*
X117043298Y-181384759D01*
X117594285Y-181385240D01*
X118103515Y-181174831D01*
X118493461Y-180785564D01*
X118589976Y-180553129D01*
X118685169Y-180783515D01*
X119074436Y-181173461D01*
X119583298Y-181384759D01*
X120134285Y-181385240D01*
X120643515Y-181174831D01*
X121033461Y-180785564D01*
X121244759Y-180276702D01*
X121245240Y-179725715D01*
X121245240Y-183315000D01*
X98994605Y-183315000D01*
X97877000Y-182197395D01*
X97877000Y-171377000D01*
X101623000Y-171377000D01*
X101623000Y-176500000D01*
X101623000Y-178127000D01*
X126802605Y-178127000D01*
X128552605Y-176377000D01*
X130447395Y-176377000D01*
X131623000Y-177552605D01*
X131623000Y-182197395D01*
G36*
X124873000Y-177123000D02*
X102627000Y-177123000D01*
X102627000Y-176400000D01*
X102627000Y-170373000D01*
X97877000Y-170373000D01*
X97877000Y-163877000D01*
X101697395Y-163877000D01*
X104623000Y-166802605D01*
X104623000Y-168224546D01*
X104615223Y-168243276D01*
X104614777Y-168754481D01*
X104623000Y-168774382D01*
X104623000Y-169302605D01*
X105873000Y-170552605D01*
X105873000Y-175250000D01*
X105873000Y-175827000D01*
X106191887Y-175827000D01*
X106459155Y-176094735D01*
X106931276Y-176290777D01*
X107442481Y-176291223D01*
X107914943Y-176096005D01*
X108184418Y-175827000D01*
X124873000Y-175827000D01*
X124873000Y-177123000D01*
X124873000Y-177123000D01*
G37*
X124873000Y-177123000D02*
X102627000Y-177123000D01*
X102627000Y-176400000D01*
X102627000Y-170373000D01*
X97877000Y-170373000D01*
X97877000Y-163877000D01*
X101697395Y-163877000D01*
X104623000Y-166802605D01*
X104623000Y-168224546D01*
X104615223Y-168243276D01*
X104614777Y-168754481D01*
X104623000Y-168774382D01*
X104623000Y-169302605D01*
X105873000Y-170552605D01*
X105873000Y-175250000D01*
X105873000Y-175827000D01*
X106191887Y-175827000D01*
X106459155Y-176094735D01*
X106931276Y-176290777D01*
X107442481Y-176291223D01*
X107914943Y-176096005D01*
X108184418Y-175827000D01*
X124873000Y-175827000D01*
X124873000Y-177123000D01*
M02*
